HIERARCHY
ROOT Hips
{
    OFFSET 0.000000 0.000000 0.000000
    CHANNELS 6 Xposition Yposition Zposition Zrotation Xrotation Yrotation
        JOINT Chest
        {
            OFFSET -0.000000 30.832245 -0.000000
            CHANNELS 3 Zrotation Xrotation Yrotation
            JOINT Neck
            {
                OFFSET -0.000000 22.747684 0.000000
                CHANNELS 3 Zrotation Xrotation Yrotation
                JOINT Head
                {
                    OFFSET -0.000000 10.755556 0.000000
                    CHANNELS 3 Zrotation Xrotation Yrotation
                    End Site
                    {
                        OFFSET -0.000000 16.622223 0.000000
                    }
                }
            }
            JOINT LeftCollar
            {
                OFFSET -0.000000 22.747684 0.000000
                CHANNELS 3 Zrotation Xrotation Yrotation
                JOINT LeftShoulder
                {
                    OFFSET 19.555553 -0.000000 0.000000
                    CHANNELS 3 Zrotation Xrotation Yrotation
                    JOINT LeftElbow
                    {
                        OFFSET 22.529686 0.000000 0.000000
                        CHANNELS 3 Zrotation Xrotation Yrotation
                        JOINT LeftWrist
                        {
                            OFFSET 26.249420 0.000000 0.000000
                            CHANNELS 3 Zrotation Xrotation Yrotation
                            End Site
                            {
                                OFFSET 0.000000 -14.666668 0.000000
                            }
                        }
                    }
                }
            }
            JOINT RightCollar
            {
                OFFSET -0.000000 22.747684 0.000000
                CHANNELS 3 Zrotation Xrotation Yrotation
                JOINT RightShoulder
                {
                    OFFSET -19.555553 0.000000 0.000000
                    CHANNELS 3 Zrotation Xrotation Yrotation
                    JOINT RightElbow
                    {
                        OFFSET -22.529686 0.000000 0.000000
                        CHANNELS 3 Zrotation Xrotation Yrotation
                        JOINT RightWrist
                        {
                            OFFSET -26.249420 0.000000 0.000000
                            CHANNELS 3 Zrotation Xrotation Yrotation
                            End Site
                            {
                                OFFSET -0.000000 -14.666668 0.000000
                            }
                        }
                    }
                }
            }
        }
    JOINT LeftHip
    {
        OFFSET 11.733333 0.000000 0.000000
        CHANNELS 3 Zrotation Xrotation Yrotation
        JOINT LeftKnee
        {
            OFFSET -0.000000 -34.781296 0.000000
            CHANNELS 3 Zrotation Xrotation Yrotation
            JOINT LeftAnkle
            {
                OFFSET -0.000000 -42.425819 0.000000
                CHANNELS 3 Zrotation Xrotation Yrotation
                End Site
                {
                    OFFSET -0.000000 -4.888888 16.622223
                }
            }
        }
    }
    JOINT RightHip
    {
        OFFSET -11.733333 0.000000 0.000000
        CHANNELS 3 Zrotation Xrotation Yrotation
        JOINT RightKnee
        {
            OFFSET -0.000000 -34.781296 0.000000
            CHANNELS 3 Zrotation Xrotation Yrotation
            JOINT RightAnkle
            {
                OFFSET -0.000000 -42.425819 0.000000
                CHANNELS 3 Zrotation Xrotation Yrotation
                End Site
                {
                    OFFSET -0.000000 -4.888888 16.622223
                }
            }
        }
    }
}
MOTION
Frames:    10
Frame Time:    0.010000
113.945770    79.675461    -50.815796    -4.150037    1.326663    -80.418709    5.195253    28.146646    -16.203804    20.910881    7.543899    6.371666    -34.958412    20.522621    14.143438    -7.450304    0.097145    -1.399267    -30.850685    47.378609    -15.717142    12.729935    -7.493300    -59.579639    65.004852    -10.455282    27.291843    8.004337    0.531956    7.350667    38.789253    0.958575    -28.035765    -0.292795    -0.194927    44.245132    -89.637230    48.853298    -108.941528    9.182363    -16.057188    -3.677001    -22.381170    42.497696    15.778364    6.574793    -16.067913    25.277163    -8.385855    -32.620022    4.275288    -2.189841    32.384056    2.663033    18.620146    4.421509    -21.559538    
114.530243    79.914650    -51.058037    -4.305933    1.367520    -79.787079    5.589567    27.705193    -15.026477    20.242441    7.064621    5.448472    -33.561142    21.295027    13.055836    -7.787520    0.070321    -1.131185    -30.157322    47.966331    -17.208275    12.967228    -7.573496    -59.379108    63.582424    -10.166075    26.161568    8.326034    0.595066    7.929466    40.244495    0.886251    -27.469002    -0.895357    -0.537227    44.540413    -85.814575    50.398304    -114.799149    9.271276    -16.121857    -3.492901    -21.561378    41.971382    14.607431    5.963242    -15.771830    25.051588    -8.633517    -32.332096    3.760639    -2.307151    36.004917    3.041436    16.436588    5.425488    -20.255613    
115.084862    80.183884    -51.328533    -4.421669    1.351058    -79.068390    5.832493    27.151728    -13.783182    19.436665    6.589931    4.481423    -31.804016    22.122076    11.849865    -8.055173    0.040585    -0.809349    -29.052351    48.620136    -19.283678    13.165283    -7.616414    -59.067760    62.046413    -9.878271    24.923584    8.603925    0.663361    8.465631    42.205585    0.937415    -26.775490    -1.776470    -1.018918    45.229626    -81.493919    51.752045    -121.295631    9.300606    -16.126675    -3.293677    -20.612190    41.316944    13.232755    5.272863    -15.475292    24.801456    -8.934896    -31.688637    3.506104    -2.136516    39.384457    2.813988    13.991786    5.983191    -18.943518    
115.605881    80.479576    -51.625328    -4.504595    1.274911    -78.292007    5.903648    26.492552    -12.477951    18.507029    6.166078    3.476222    -29.682734    22.984903    10.523442    -8.248343    0.014716    -0.441691    -27.561737    49.305729    -21.888014    13.306170    -7.611728    -58.649220    60.415657    -9.610710    23.594193    8.814598    0.660913    8.923140    44.665985    1.244138    -25.882101    -2.869605    -1.602470    46.340767    -76.646263    52.830502    -128.458176    9.274836    -16.050058    -3.066902    -19.567028    40.519913    11.729166    4.526217    -15.187947    24.505911    -9.263676    -30.658535    3.493659    -1.604473    42.408344    1.824657    11.547699    6.019076    -17.769081    
116.089676    80.797318    -51.946007    -4.563039    1.137292    -77.490265    5.788647    25.738995    -11.118055    17.489857    5.835646    2.442418    -27.227198    23.864649    9.089205    -8.373033    -0.019016    -0.047301    -25.740820    49.991135    -24.915005    13.409102    -7.574262    -58.135597    58.654423    -9.398914    22.201973    8.906949    0.720490    9.262357    47.616035    1.772817    -24.607050    -4.143739    -2.287086    47.543816    -71.588501    53.449116    -135.657211    9.199644    -15.870896    -2.799780    -18.462049    39.570530    10.179450    3.694878    -14.946197    24.146540    -9.588235    -29.227488    3.679626    -0.701356    44.977131    0.034500    9.322088    5.555403    -16.826336    
116.533470    81.131958    -52.288460    -4.604240    0.939419    -76.694595    5.484497    24.903765    -9.715601    16.439194    5.642002    1.399930    -24.500740    24.735937    7.572155    -8.447370    -0.058774    0.345109    -23.683962    50.619446    -28.204691    13.455388    -7.476928    -57.549530    56.764446    -9.287455    20.806046    8.875535    0.750040    9.449538    50.916882    2.704314    -22.898331    -5.407382    -2.956759    48.940636    -66.525543    53.584511    -142.699509    9.084177    -15.573709    -2.484233    -17.336542    38.465893    8.666975    2.706141    -14.805263    23.715006    -9.872499    -27.400997    3.998804    0.494837    47.017284    -2.445109    7.469854    4.677376    -16.132286    
116.935989    81.477821    -52.651787    -4.631905    0.688173    -75.930664    5.003998    23.999399    -8.289852    15.421009    5.619823    0.408326    -21.583658    25.583858    5.980826    -8.496541    -0.031243    0.696356    -21.526033    51.057159    -31.557886    13.328339    -7.229367    -56.940060    54.810898    -9.302992    19.472637    8.724463    0.696520    9.461660    54.405441    4.145083    -20.769972    -6.507753    -3.529482    50.396221    -61.937519    53.206848    -148.849289    8.942268    -15.155791    -2.123549    -16.232983    37.213242    7.272522    1.476377    -14.820906    23.210497    -10.077142    -25.205996    4.370399    1.816985    48.491547    -5.356439    6.078740    3.500649    -15.630720    
117.297829    81.828354    -53.036083    -4.645364    0.395139    -75.215012    4.373674    23.037390    -6.867333    14.506276    5.783303    -0.610122    -18.606064    26.301825    4.455191    -8.543323    -0.076158    0.957911    -19.523821    51.386173    -34.650932    13.198568    -7.084728    -56.320328    52.596031    -9.475310    18.213402    8.444622    0.670380    9.285035    57.883160    6.055871    -18.168242    -7.289980    -3.903598    51.670349    -58.402313    52.355068    -153.198273    8.789691    -14.630066    -1.732182    -15.190965    35.832401    6.062819    -0.057175    -15.031333    22.634340    -10.165320    -22.690191    4.704417    3.039564    49.405781    -8.338336    5.174133    2.148914    -15.216894    
117.621109    82.175171    -53.440891    -4.644287    0.070410    -74.555489    3.626224    22.032490    -5.478446    13.755862    6.122423    -1.512399    -15.657327    26.953640    2.972216    -8.609469    -0.097123    1.086140    -17.926964    51.474751    -37.187061    12.826070    -6.716177    -55.764805    50.274456    -9.825296    17.127953    8.065666    0.609690    8.913332    61.082508    8.509506    -15.177176    -7.607081    -3.988032    52.985332    -56.121971    51.185352    -155.473785    8.637862    -14.019156    -1.326965    -14.238829    34.357933    5.077791    -1.917627    -15.447678    21.985247    -10.110477    -19.914196    4.912899    3.934088    49.805595    -11.001638    4.731248    0.743670    -14.767997    
117.908882    82.508217    -53.864807    -4.632139    -0.279989    -73.950714    2.795234    21.003130    -4.155094    13.218047    6.605148    -2.292076    -12.814150    27.483868    1.597014    -8.709537    -0.079204    1.051444    -16.929417    51.317924    -38.951401    12.256884    -6.243679    -55.290882    47.789463    -10.334512    16.232038    7.604355    0.568036    8.331877    63.789585    11.465126    -11.818398    -7.381417    -3.756942    54.266182    -55.407204    49.842571    -155.156189    8.493546    -13.349815    -0.920684    -13.391599    32.836845    4.329162    -4.080341    -16.051491    21.254751    -9.901072    -16.940926    4.923523    4.335265    49.757065    -13.014256    4.687588    -0.603756    -14.178046    
